<svg width="664" height="632" viewBox="0 0 664 632" fill="none" xmlns="http://www.w3.org/2000/svg">
<path d="M288.074 15.5098C370.872 15.5192 381.024 15.7954 400.616 19.0547L404.685 19.7471C430.585 24.227 457.492 33.3325 483.665 46.6006L486.195 47.8975C509.168 59.8004 525.285 70.7855 544.616 87.709C601.468 137.483 635.766 202.088 646.866 281.206L647.124 283.078C647.83 288.3 648.289 302.092 648.292 317.186C648.295 332.224 647.846 346.321 647.12 352.054C641.859 393.619 626.872 437.294 606.246 471.495C560.703 547.015 485.968 598.665 402.753 612.676H402.752C382.775 616.039 374.949 616.5 322.159 616.5H319.04C324.889 611.498 330.579 606.184 336.053 600.609L336.054 600.61L344.018 592.5H355.2C365.399 592.5 379.511 591.802 387.246 590.851L387.247 590.852C437.292 584.699 487.112 562.472 526.847 528.8C537.976 519.369 556.735 500.1 565.402 489.16C596.565 449.827 616.075 402.89 622.812 351.516C624.619 337.736 624.934 331.273 624.562 314.587L624.479 311.107C623.611 276.739 619.673 253.617 609.441 223.846C605.04 211.039 591.284 182.436 583.538 169.842L582.808 168.674C553.495 122.641 514.477 87.7233 466.714 65.0381C446.35 55.366 426.158 48.4381 406.975 44.7246L405.122 44.375C380.392 39.8391 372.051 39.5 313.775 39.5H241.826V244.428C241.826 309.634 241.742 357.562 241.564 389.847C241.476 405.995 241.365 418.188 241.229 426.656C241.162 430.897 241.089 434.145 241.013 436.464C240.924 439.154 240.849 439.807 240.892 439.501C236.345 472.182 213.756 497.456 182.869 505.176H182.868C177.622 506.487 174.318 506.897 164.896 506.854H164.896C143.272 506.756 126.986 500.185 110.191 484.306L110.19 484.305L109.724 483.852C107.382 481.523 103.61 477.029 100.123 472.38C104.028 468.603 108.845 463.983 113.682 459.373C115.119 458.003 116.556 456.635 117.969 455.293C119.926 458.68 122.239 461.865 124.844 464.762L125.583 465.567C137.925 478.761 154.149 485.049 171.956 482.208C196.205 478.339 214.128 460.832 217.646 436.498C217.893 434.795 217.965 431.827 218.021 429.453C218.093 426.448 218.159 422.297 218.22 417.082C218.342 406.639 218.446 391.746 218.532 372.823C218.704 334.968 218.8 280.874 218.806 213.751L218.824 15.501L288.074 15.5098ZM343.361 124.756C376.784 125.268 381.28 125.84 399.728 130.556C435.428 139.682 470.339 161.82 494.55 190.821V190.822C497.746 194.652 502.956 201.564 507.465 207.849C509.696 210.959 511.64 213.754 512.985 215.786C513.436 216.467 513.77 216.994 514.007 217.374C514.228 217.925 514.449 218.399 514.588 218.689C514.897 219.337 515.255 220.023 515.588 220.643C516.275 221.923 517.165 223.493 518.104 225.085L518.105 225.087C526.176 238.756 533.323 259.093 537.851 282.941L538.281 285.261C539.534 292.181 540.322 303.614 540.404 315.639C540.487 327.7 539.848 338.869 538.715 345.317V345.318C535.718 362.377 532.738 373.68 528.702 384.11L528.309 385.117C514.391 420.305 494.218 447.615 466.771 468.96C446.318 484.865 420.666 497.226 395.666 503.238L395.665 503.239C395.266 503.335 394.855 503.428 394.438 503.524C396.598 496.882 398.496 489.974 399.997 483.252L399.998 483.251C400.465 481.156 400.93 479.113 401.346 477.298C401.863 477.113 402.425 476.918 403.029 476.715H403.03C430.954 467.342 458.183 448.271 477.052 425.009L477.051 425.008C495.822 401.869 506.321 381.206 512.699 354.114L513 352.819C517.013 335.285 518.005 309.212 515.241 291.896V291.896C506.486 237.041 473.348 190.774 424.603 165.861V165.86L423.38 165.244C417.115 162.124 408.689 158.499 403.581 156.853C398.304 155.152 391.381 153.388 385.294 152.056C379.841 150.862 372.99 149.538 368.812 149.517H368.812L365.719 149.5L350.145 149.42L350.139 164.995L350.095 301.745C350.055 423.921 349.822 439.208 348.533 448.969C345.511 471.84 341.256 487.383 333.23 505.312L332.442 507.056C306.07 564.742 252.044 605.592 190.095 614.973L188.63 615.188C183.768 615.884 174.582 616.36 164.799 616.434C155.574 616.503 147.205 616.202 142.64 615.671L141.778 615.562C129.888 613.912 107.035 607.685 96.6699 603.31V603.309C68.5619 591.444 46.7429 575.264 22.1455 547.318L21.666 546.773C24.0321 544.555 26.7974 541.952 29.6768 539.229L36.1396 533.098L38.9033 530.467C42.2682 534.48 46.2105 538.747 50.0918 542.702C56.2476 548.975 63.2251 555.457 68.998 559.869L70.1357 560.723C128.795 603.916 205.857 602.825 262.745 558.012L264.085 556.944C281.314 543.085 298.076 522.443 308.204 502.654L308.682 501.713C314.529 490.06 321.401 469.434 324.18 455.54L324.181 455.538C325.36 449.641 325.78 443.119 326.055 420.019C326.335 396.437 326.438 354.347 326.576 276.159L326.843 124.502L343.361 124.756ZM512.833 211.827C512.835 211.887 512.838 211.947 512.841 212.006C512.839 211.964 512.835 211.921 512.834 211.879L512.833 211.827Z" fill="white" stroke="none"/>
</svg>
